#tb 0: 1/22050
0,          0,          0,    11024,    22048, 0x0665d7f4
0,      11024,      11024,     1470,     2940, 0x0f3c64cb
0,      12494,      12494,     1470,     2940, 0xc90b9e78
0,      13964,      13964,     1470,     2940, 0x146246a3
0,      15434,      15434,     1470,     2940, 0xd22c714e
0,      16904,      16904,     1470,     2940, 0xd86b681e
0,      18374,      18374,     1470,     2940, 0x12ec8186
0,      19844,      19844,     1470,     2940, 0x69aa85b6
0,      21314,      21314,     1470,     2940, 0xb24d33b0
0,      22784,      22784,     1470,     2940, 0x3f7b0f0d
0,      24254,      24254,     1470,     2940, 0x64f10f7e
0,      25724,      25724,     1470,     2940, 0xd6ea379a
0,      27194,      27194,     1470,     2940, 0x7c38e830
0,      28664,      28664,     1470,     2940, 0xc28ff132
0,      30134,      30134,     1470,     2940, 0xe7b11629
0,      31604,      31604,     1470,     2940, 0xeb86fdcb
0,      33074,      33074,     1470,     2940, 0x5508f586
0,      34544,      34544,     1470,     2940, 0xf4fa1f1b
0,      36014,      36014,     1470,     2940, 0x9e5ff976
0,      37484,      37484,     1470,     2940, 0xcfc4e08f
0,      38954,      38954,     1470,     2940, 0x74bde7ed
0,      40424,      40424,     1470,     2940, 0x3e4ae245
0,      41894,      41894,     1470,     2940, 0x4c6a8e56
0,      43364,      43364,     1470,     2940, 0xa09d86ab
0,      44834,      44834,     1470,     2940, 0xc8531912
0,      46304,      46304,     1470,     2940, 0xa5f266aa
0,      47774,      47774,     1470,     2940, 0x587a4187
0,      49244,      49244,     1470,     2940, 0x14752d45
0,      50714,      50714,     1470,     2940, 0x558cde10
0,      52184,      52184,     1470,     2940, 0x735fee38
0,      53654,      53654,     1470,     2940, 0xac8bb6c8
0,      55124,      55124,     1470,     2940, 0xa503c73b
0,      56594,      56594,     1470,     2940, 0x7cd588a3
0,      58064,      58064,     1470,     2940, 0xa6974b04
0,      59534,      59534,     1470,     2940, 0xbf448241
0,      61004,      61004,     1470,     2940, 0x2a5c2759
0,      62474,      62474,     1470,     2940, 0xd0de5ce0
0,      63944,      63944,     1470,     2940, 0xc0486649
0,      65414,      65414,     1470,     2940, 0x48b040af
0,      66884,      66884,     1470,     2940, 0x82a338a9
